{
    "asset" : {
        "generator" : "Khronos glTF Blender I/O v3.2.0",
        "version" : "2.0"
    },
    "scene" : 0,
    "scenes" : [
        {
            "name" : "BUGGY",
            "nodes" : [
                0
            ]
        },
        {
            "name" : "TERRAIN",
            "nodes" : [
                1
            ]
        }
    ],
    "nodes" : [
        {
            "mesh" : 0,
            "name" : "BUGGY",
            "translation" : [
                0,
                1,
                0
            ]
        },
        {
            "mesh" : 1,
            "name" : "TERRAIN"
        }
    ],
    "materials" : [
        {
            "doubleSided" : true,
            "name" : "wheel",
            "pbrMetallicRoughness" : {
                "baseColorFactor" : [
                    0.004391442518681288,
                    0.004391443450003862,
                    0.004391443450003862,
                    1
                ],
                "metallicFactor" : 0
            }
        },
        {
            "name" : "BUGGY",
            "pbrMetallicRoughness" : {
                "baseColorFactor" : [
                    0.08021986484527588,
                    0.015208510681986809,
                    0.07227186858654022,
                    1
                ],
                "metallicFactor" : 0
            }
        },
        {
            "name" : "dirt",
            "pbrMetallicRoughness" : {
                "baseColorFactor" : [
                    0.08710692822933197,
                    0.052244365215301514,
                    0.03370017185807228,
                    1
                ],
                "metallicFactor" : 0
            }
        }
    ],
    "meshes" : [
        {
            "name" : "BUGGY",
            "primitives" : [
                {
                    "attributes" : {
                        "POSITION" : 0,
                        "NORMAL" : 1,
                        "TEXCOORD_0" : 2
                    },
                    "indices" : 3,
                    "material" : 0
                },
                {
                    "attributes" : {
                        "POSITION" : 4,
                        "NORMAL" : 5,
                        "TEXCOORD_0" : 6
                    },
                    "indices" : 7,
                    "material" : 1
                }
            ]
        },
        {
            "name" : "TERRAIN",
            "primitives" : [
                {
                    "attributes" : {
                        "POSITION" : 8,
                        "NORMAL" : 9,
                        "TEXCOORD_0" : 10
                    },
                    "indices" : 11,
                    "material" : 2
                }
            ]
        }
    ],
    "accessors" : [
        {
            "bufferView" : 0,
            "componentType" : 5126,
            "count" : 920,
            "max" : [
                3.730461597442627,
                0.04269865155220032,
                1.4669828414916992
            ],
            "min" : [
                -3.6357407569885254,
                -1.8001447916030884,
                -1.488989233970642
            ],
            "type" : "VEC3"
        },
        {
            "bufferView" : 1,
            "componentType" : 5126,
            "count" : 920,
            "type" : "VEC3"
        },
        {
            "bufferView" : 2,
            "componentType" : 5126,
            "count" : 920,
            "type" : "VEC2"
        },
        {
            "bufferView" : 3,
            "componentType" : 5123,
            "count" : 1722,
            "type" : "SCALAR"
        },
        {
            "bufferView" : 4,
            "componentType" : 5126,
            "count" : 126,
            "max" : [
                3.749091625213623,
                1.4430955648422241,
                1.201697587966919
            ],
            "min" : [
                -3.645937919616699,
                -0.9343776106834412,
                -1.1974232196807861
            ],
            "type" : "VEC3"
        },
        {
            "bufferView" : 5,
            "componentType" : 5126,
            "count" : 126,
            "type" : "VEC3"
        },
        {
            "bufferView" : 6,
            "componentType" : 5126,
            "count" : 126,
            "type" : "VEC2"
        },
        {
            "bufferView" : 7,
            "componentType" : 5123,
            "count" : 294,
            "type" : "SCALAR"
        },
        {
            "bufferView" : 8,
            "componentType" : 5126,
            "count" : 2296,
            "max" : [
                200.00001525878906,
                31.645540237426758,
                200.00001525878906
            ],
            "min" : [
                -200.00001525878906,
                -7.882206916809082,
                -200.00001525878906
            ],
            "type" : "VEC3"
        },
        {
            "bufferView" : 9,
            "componentType" : 5126,
            "count" : 2296,
            "type" : "VEC3"
        },
        {
            "bufferView" : 10,
            "componentType" : 5126,
            "count" : 2296,
            "type" : "VEC2"
        },
        {
            "bufferView" : 11,
            "componentType" : 5123,
            "count" : 3468,
            "type" : "SCALAR"
        }
    ],
    "bufferViews" : [
        {
            "buffer" : 0,
            "byteLength" : 11040,
            "byteOffset" : 0
        },
        {
            "buffer" : 0,
            "byteLength" : 11040,
            "byteOffset" : 11040
        },
        {
            "buffer" : 0,
            "byteLength" : 7360,
            "byteOffset" : 22080
        },
        {
            "buffer" : 0,
            "byteLength" : 3444,
            "byteOffset" : 29440
        },
        {
            "buffer" : 0,
            "byteLength" : 1512,
            "byteOffset" : 32884
        },
        {
            "buffer" : 0,
            "byteLength" : 1512,
            "byteOffset" : 34396
        },
        {
            "buffer" : 0,
            "byteLength" : 1008,
            "byteOffset" : 35908
        },
        {
            "buffer" : 0,
            "byteLength" : 588,
            "byteOffset" : 36916
        },
        {
            "buffer" : 0,
            "byteLength" : 27552,
            "byteOffset" : 37504
        },
        {
            "buffer" : 0,
            "byteLength" : 27552,
            "byteOffset" : 65056
        },
        {
            "buffer" : 0,
            "byteLength" : 18368,
            "byteOffset" : 92608
        },
        {
            "buffer" : 0,
            "byteLength" : 6936,
            "byteOffset" : 110976
        }
    ],
    "buffers" : [
        {
            "byteLength" : 117912,
            "uri" : "data:application/octet-stream;base64,"
        }
    ]
}
