{
    "asset" : {
        "generator" : "Khronos glTF Blender I/O v3.2.0",
        "version" : "2.0"
    },
    "scene" : 1,
    "scenes" : [
        {
            "name" : "BUGGY",
            "nodes" : [
                0
            ]
        },
        {
            "name" : "TERRAIN",
            "nodes" : [
                1
            ]
        }
    ],
    "nodes" : [
        {
            "mesh" : 0,
            "name" : "BUGGY",
            "translation" : [
                0.26285073161125183,
                0.9672906398773193,
                0
            ]
        },
        {
            "mesh" : 1,
            "name" : "TERRAIN",
            "scale" : [
                4.7160725593566895,
                4.7160725593566895,
                4.7160725593566895
            ]
        }
    ],
    "materials" : [
        {
            "doubleSided" : true,
            "name" : "wheel",
            "pbrMetallicRoughness" : {
                "baseColorFactor" : [
                    0.004241750109940767,
                    0.004241750109940767,
                    0.004241750109940767,
                    1
                ],
                "metallicFactor" : 0,
                "roughnessFactor" : 0.4000000059604645
            }
        },
        {
            "name" : "body",
            "pbrMetallicRoughness" : {
                "baseColorFactor" : [
                    0.0800115093588829,
                    0.015348473563790321,
                    0.07245130091905594,
                    1
                ],
                "metallicFactor" : 0,
                "roughnessFactor" : 0.5
            }
        },
        {
            "name" : "dirt",
            "pbrMetallicRoughness" : {
                "baseColorFactor" : [
                    0.08710692822933197,
                    0.052244365215301514,
                    0.03370017185807228,
                    1
                ],
                "metallicFactor" : 0,
                "roughnessFactor" : 0.5
            }
        }
    ],
    "meshes" : [
        {
            "name" : "BUGGY",
            "primitives" : [
                {
                    "attributes" : {
                        "POSITION" : 0,
                        "NORMAL" : 1,
                        "TEXCOORD_0" : 2
                    },
                    "indices" : 3,
                    "material" : 0
                },
                {
                    "attributes" : {
                        "POSITION" : 4,
                        "NORMAL" : 5,
                        "TEXCOORD_0" : 6
                    },
                    "indices" : 7,
                    "material" : 1
                }
            ]
        },
        {
            "name" : "TERRAIN",
            "primitives" : [
                {
                    "attributes" : {
                        "POSITION" : 8,
                        "NORMAL" : 9,
                        "TEXCOORD_0" : 10
                    },
                    "indices" : 11,
                    "material" : 2
                }
            ]
        }
    ],
    "accessors" : [
        {
            "bufferView" : 0,
            "componentType" : 5126,
            "count" : 920,
            "max" : [
                4.271425724029541,
                0.897881269454956,
                1.4648455381393433
            ],
            "min" : [
                -3.0947768688201904,
                -0.9449607729911804,
                -1.4911264181137085
            ],
            "type" : "VEC3"
        },
        {
            "bufferView" : 1,
            "componentType" : 5126,
            "count" : 920,
            "type" : "VEC3"
        },
        {
            "bufferView" : 2,
            "componentType" : 5126,
            "count" : 920,
            "type" : "VEC2"
        },
        {
            "bufferView" : 3,
            "componentType" : 5123,
            "count" : 1722,
            "type" : "SCALAR"
        },
        {
            "bufferView" : 4,
            "componentType" : 5126,
            "count" : 126,
            "max" : [
                4.290055751800537,
                2.2982771396636963,
                1.1995604038238525
            ],
            "min" : [
                -3.104973793029785,
                -0.07919425517320633,
                -1.1995604038238525
            ],
            "type" : "VEC3"
        },
        {
            "bufferView" : 5,
            "componentType" : 5126,
            "count" : 126,
            "type" : "VEC3"
        },
        {
            "bufferView" : 6,
            "componentType" : 5126,
            "count" : 126,
            "type" : "VEC2"
        },
        {
            "bufferView" : 7,
            "componentType" : 5123,
            "count" : 294,
            "type" : "SCALAR"
        },
        {
            "bufferView" : 8,
            "componentType" : 5126,
            "count" : 2260,
            "max" : [
                100,
                8.970464706420898,
                100
            ],
            "min" : [
                -100,
                -5.132498741149902,
                -100
            ],
            "type" : "VEC3"
        },
        {
            "bufferView" : 9,
            "componentType" : 5126,
            "count" : 2260,
            "type" : "VEC3"
        },
        {
            "bufferView" : 10,
            "componentType" : 5126,
            "count" : 2260,
            "type" : "VEC2"
        },
        {
            "bufferView" : 11,
            "componentType" : 5123,
            "count" : 3468,
            "type" : "SCALAR"
        }
    ],
    "bufferViews" : [
        {
            "buffer" : 0,
            "byteLength" : 11040,
            "byteOffset" : 0
        },
        {
            "buffer" : 0,
            "byteLength" : 11040,
            "byteOffset" : 11040
        },
        {
            "buffer" : 0,
            "byteLength" : 7360,
            "byteOffset" : 22080
        },
        {
            "buffer" : 0,
            "byteLength" : 3444,
            "byteOffset" : 29440
        },
        {
            "buffer" : 0,
            "byteLength" : 1512,
            "byteOffset" : 32884
        },
        {
            "buffer" : 0,
            "byteLength" : 1512,
            "byteOffset" : 34396
        },
        {
            "buffer" : 0,
            "byteLength" : 1008,
            "byteOffset" : 35908
        },
        {
            "buffer" : 0,
            "byteLength" : 588,
            "byteOffset" : 36916
        },
        {
            "buffer" : 0,
            "byteLength" : 27120,
            "byteOffset" : 37504
        },
        {
            "buffer" : 0,
            "byteLength" : 27120,
            "byteOffset" : 64624
        },
        {
            "buffer" : 0,
            "byteLength" : 18080,
            "byteOffset" : 91744
        },
        {
            "buffer" : 0,
            "byteLength" : 6936,
            "byteOffset" : 109824
        }
    ],
    "buffers" : [
        {
            "byteLength" : 116760,
            "uri" : "data:application/octet-stream;base64,"
        }
    ]
}
