{
    "asset" : {
        "generator" : "Khronos glTF Blender I/O v3.2.0",
        "version" : "2.0"
    },
    "scene" : 0,
    "scenes" : [
        {
            "name" : "CAR",
            "nodes" : [
                0,
                2
            ]
        },
        {
            "name" : "DESERT",
            "nodes" : [
                3,
                4
            ]
        }
    ],
    "nodes" : [
        {
            "mesh" : 0,
            "name" : "CAR",
            "translation" : [
                0,
                0.24516379833221436,
                0
            ]
        },
        {
            "camera" : 0,
            "name" : "CAMERA_Orientation",
            "rotation" : [
                -0.7071067690849304,
                0,
                0,
                0.7071067690849304
            ]
        },
        {
            "children" : [
                1
            ],
            "name" : "CAMERA",
            "rotation" : [
                0.5103616714477539,
                -0.48942244052886963,
                0.48942235112190247,
                0.5103553533554077
            ],
            "translation" : [
                -102.91860961914062,
                10.147238731384277,
                3.941392421722412
            ]
        },
        {
            "mesh" : 1,
            "name" : "DESERT"
        },
        {
            "mesh" : 2,
            "name" : "WIREFRAME",
            "translation" : [
                0,
                0.10000000149011612,
                0
            ]
        }
    ],
    "cameras" : [
        {
            "name" : "CAMERA",
            "perspective" : {
                "aspectRatio" : 1.7777777777777777,
                "yfov" : 0.39959648408210363,
                "zfar" : 1000,
                "znear" : 0.10000000149011612
            },
            "type" : "perspective"
        }
    ],
    "materials" : [
        {
            "doubleSided" : true,
            "name" : "wheel",
            "pbrMetallicRoughness" : {
                "baseColorFactor" : [
                    0.014023175463080406,
                    0.014023175463080406,
                    0.014023175463080406,
                    1
                ],
                "metallicFactor" : 0
            }
        },
        {
            "emissiveFactor" : [
                0.03423910215497017,
                0.009250105358660221,
                0.006851043552160263
            ],
            "name" : "CAR",
            "pbrMetallicRoughness" : {
                "baseColorFactor" : [
                    0.06847820430994034,
                    0.018500210717320442,
                    0.013702087104320526,
                    1
                ],
                "metallicFactor" : 0
            }
        },
        {
            "name" : "DESERT",
            "pbrMetallicRoughness" : {
                "baseColorFactor" : [
                    0.08710692822933197,
                    0.052244365215301514,
                    0.03370017185807228,
                    1
                ],
                "metallicFactor" : 0
            }
        },
        {
            "doubleSided" : true,
            "emissiveFactor" : [
                1,
                1,
                0
            ],
            "name" : "WIREFRAME",
            "pbrMetallicRoughness" : {
                "baseColorFactor" : [
                    0.8000000715255737,
                    0.10635536909103394,
                    0,
                    1
                ],
                "metallicFactor" : 0,
                "roughnessFactor" : 0.20000000298023224
            }
        }
    ],
    "meshes" : [
        {
            "name" : "CAR",
            "primitives" : [
                {
                    "attributes" : {
                        "POSITION" : 0,
                        "NORMAL" : 1,
                        "TEXCOORD_0" : 2
                    },
                    "indices" : 3,
                    "material" : 0
                },
                {
                    "attributes" : {
                        "POSITION" : 4,
                        "NORMAL" : 5,
                        "TEXCOORD_0" : 6
                    },
                    "indices" : 7,
                    "material" : 1
                }
            ]
        },
        {
            "name" : "DESERT",
            "primitives" : [
                {
                    "attributes" : {
                        "POSITION" : 8,
                        "NORMAL" : 9,
                        "TEXCOORD_0" : 10
                    },
                    "indices" : 11,
                    "material" : 2
                }
            ]
        },
        {
            "name" : "WIREFRAME",
            "primitives" : [
                {
                    "attributes" : {
                        "POSITION" : 12,
                        "NORMAL" : 13,
                        "TEXCOORD_0" : 14
                    },
                    "indices" : 15,
                    "material" : 3
                }
            ]
        }
    ],
    "accessors" : [
        {
            "bufferView" : 0,
            "componentType" : 5126,
            "count" : 920,
            "max" : [
                3.730461597442627,
                0.04269865155220032,
                1.4669828414916992
            ],
            "min" : [
                -3.6357407569885254,
                -1.8001447916030884,
                -1.488989233970642
            ],
            "type" : "VEC3"
        },
        {
            "bufferView" : 1,
            "componentType" : 5126,
            "count" : 920,
            "type" : "VEC3"
        },
        {
            "bufferView" : 2,
            "componentType" : 5126,
            "count" : 920,
            "type" : "VEC2"
        },
        {
            "bufferView" : 3,
            "componentType" : 5123,
            "count" : 1722,
            "type" : "SCALAR"
        },
        {
            "bufferView" : 4,
            "componentType" : 5126,
            "count" : 126,
            "max" : [
                3.749091625213623,
                1.4430955648422241,
                1.201697587966919
            ],
            "min" : [
                -3.645937919616699,
                -0.9343776106834412,
                -1.1974232196807861
            ],
            "type" : "VEC3"
        },
        {
            "bufferView" : 5,
            "componentType" : 5126,
            "count" : 126,
            "type" : "VEC3"
        },
        {
            "bufferView" : 6,
            "componentType" : 5126,
            "count" : 126,
            "type" : "VEC2"
        },
        {
            "bufferView" : 7,
            "componentType" : 5123,
            "count" : 294,
            "type" : "SCALAR"
        },
        {
            "bufferView" : 8,
            "componentType" : 5126,
            "count" : 2296,
            "max" : [
                200.00001525878906,
                31.645540237426758,
                200.00001525878906
            ],
            "min" : [
                -200.00001525878906,
                -7.375095844268799,
                -200.00001525878906
            ],
            "type" : "VEC3"
        },
        {
            "bufferView" : 9,
            "componentType" : 5126,
            "count" : 2296,
            "type" : "VEC3"
        },
        {
            "bufferView" : 10,
            "componentType" : 5126,
            "count" : 2296,
            "type" : "VEC2"
        },
        {
            "bufferView" : 11,
            "componentType" : 5123,
            "count" : 3468,
            "type" : "SCALAR"
        },
        {
            "bufferView" : 12,
            "componentType" : 5126,
            "count" : 18404,
            "max" : [
                200.00001525878906,
                31.645540237426758,
                200.00001525878906
            ],
            "min" : [
                -200.00001525878906,
                -7.375095844268799,
                -200.00001525878906
            ],
            "type" : "VEC3"
        },
        {
            "bufferView" : 13,
            "componentType" : 5126,
            "count" : 18404,
            "type" : "VEC3"
        },
        {
            "bufferView" : 14,
            "componentType" : 5126,
            "count" : 18404,
            "type" : "VEC2"
        },
        {
            "bufferView" : 15,
            "componentType" : 5123,
            "count" : 27744,
            "type" : "SCALAR"
        }
    ],
    "bufferViews" : [
        {
            "buffer" : 0,
            "byteLength" : 11040,
            "byteOffset" : 0
        },
        {
            "buffer" : 0,
            "byteLength" : 11040,
            "byteOffset" : 11040
        },
        {
            "buffer" : 0,
            "byteLength" : 7360,
            "byteOffset" : 22080
        },
        {
            "buffer" : 0,
            "byteLength" : 3444,
            "byteOffset" : 29440
        },
        {
            "buffer" : 0,
            "byteLength" : 1512,
            "byteOffset" : 32884
        },
        {
            "buffer" : 0,
            "byteLength" : 1512,
            "byteOffset" : 34396
        },
        {
            "buffer" : 0,
            "byteLength" : 1008,
            "byteOffset" : 35908
        },
        {
            "buffer" : 0,
            "byteLength" : 588,
            "byteOffset" : 36916
        },
        {
            "buffer" : 0,
            "byteLength" : 27552,
            "byteOffset" : 37504
        },
        {
            "buffer" : 0,
            "byteLength" : 27552,
            "byteOffset" : 65056
        },
        {
            "buffer" : 0,
            "byteLength" : 18368,
            "byteOffset" : 92608
        },
        {
            "buffer" : 0,
            "byteLength" : 6936,
            "byteOffset" : 110976
        },
        {
            "buffer" : 0,
            "byteLength" : 220848,
            "byteOffset" : 117912
        },
        {
            "buffer" : 0,
            "byteLength" : 220848,
            "byteOffset" : 338760
        },
        {
            "buffer" : 0,
            "byteLength" : 147232,
            "byteOffset" : 559608
        },
        {
            "buffer" : 0,
            "byteLength" : 55488,
            "byteOffset" : 706840
        }
    ],
    "buffers" : [
        {
            "byteLength" : 762328,
            "uri" : "data:application/octet-stream;base64,"
        }
    ]
}
