{
	"asset":{
		"generator":"Khronos glTF Blender I/O v4.4.56",
		"version":"2.0"
	},
	"extensionsUsed":[
		"KHR_materials_emissive_strength",
		"KHR_materials_specular",
		"KHR_materials_ior"
	],
	"scene":1,
	"scenes":[
		{
			"name":"CAR",
			"nodes":[
				0
			]
		},
		{
			"name":"DESERT",
			"nodes":[
				1,
				2
			]
		}
	],
	"nodes":[
		{
			"mesh":0,
			"name":"CAR",
			"rotation":[
				0,
				0,
				-0.7071068286895752,
				0.7071068286895752
			],
			"scale":[
				0.26234400272369385,
				0.26234400272369385,
				0.26234400272369385
			],
			"translation":[
				3.554126262664795,
				-0.10411389172077179,
				0.8822299838066101
			]
		},
		{
			"mesh":1,
			"name":"DESERT"
		},
		{
			"mesh":2,
			"name":"DESERT.002",
			"translation":[
				0,
				0.20000000298023224,
				0
			]
		}
	],
	"materials":[
		{
			"doubleSided":true,
			"name":"wheel",
			"pbrMetallicRoughness":{
				"baseColorFactor":[
					0.014023175463080406,
					0.014023175463080406,
					0.014023175463080406,
					1
				],
				"metallicFactor":0
			}
		},
		{
			"emissiveFactor":[
				0.03423910215497017,
				0.009250105358660221,
				0.006851043552160263
			],
			"extensions":{
				"KHR_materials_specular":{
					"specularColorFactor":[
						0.5342391133308411,
						0.5092501044273376,
						0.5068510174751282
					]
				},
				"KHR_materials_ior":{
					"ior":1.4500000476837158
				}
			},
			"name":"CAR",
			"pbrMetallicRoughness":{
				"baseColorFactor":[
					0.06847820430994034,
					0.018500210717320442,
					0.013702087104320526,
					1
				],
				"metallicFactor":0
			}
		},
		{
			"doubleSided":true,
			"emissiveFactor":[
				0.814846396446228,
				1,
				0.5775806307792664
			],
			"extensions":{
				"KHR_materials_emissive_strength":{
					"emissiveStrength":1000
				},
				"KHR_materials_specular":{
					"specularColorFactor":[
						0.907423198223114,
						1.0,
						0.7887903451919556
					]
				},
				"KHR_materials_ior":{
					"ior":1.4500000476837158
				}
			},
			"name":"HEADLIGHT",
			"pbrMetallicRoughness":{
				"baseColorFactor":[
					0.814846396446228,
					1,
					0.5775806307792664,
					1
				],
				"metallicFactor":0,
				"roughnessFactor":0.5
			}
		},
		{
			"extensions":{
				"KHR_materials_specular":{
					"specularColorFactor":[
						0.6333363652229309,
						0.5689927339553833,
						0.5096746683120728
					]
				},
				"KHR_materials_ior":{
					"ior":1.4500000476837158
				}
			},
			"name":"DESERT",
			"pbrMetallicRoughness":{
				"baseColorFactor":[
					0.2666727602481842,
					0.1379854679107666,
					0.019349364563822746,
					1
				],
				"metallicFactor":0
			}
		},
		{
			"doubleSided":true,
			"emissiveFactor":[
				1,
				0.14599941670894623,
				0
			],
			"extensions":{
				"KHR_materials_emissive_strength":{
					"emissiveStrength":23.599998474121094
				},
				"KHR_materials_specular":{
					"specularColorFactor":[
						0.9000000357627869,
						0.5531777143478394,
						0.5
					]
				},
				"KHR_materials_ior":{
					"ior":1.4500000476837158
				}
			},
			"name":"WIREFRAME",
			"pbrMetallicRoughness":{
				"baseColorFactor":[
					0.8000000715255737,
					0.10635536909103394,
					0,
					1
				],
				"metallicFactor":0,
				"roughnessFactor":0.20000000298023224
			}
		}
	],
	"meshes":[
		{
			"name":"CAR",
			"primitives":[
				{
					"attributes":{
						"POSITION":0,
						"NORMAL":1,
						"TEXCOORD_0":2
					},
					"indices":3,
					"material":0
				},
				{
					"attributes":{
						"POSITION":4,
						"NORMAL":5,
						"TEXCOORD_0":6
					},
					"indices":7,
					"material":1
				},
				{
					"attributes":{
						"POSITION":8,
						"NORMAL":9,
						"TEXCOORD_0":10
					},
					"indices":11,
					"material":2
				}
			]
		},
		{
			"name":"DESERT",
			"primitives":[
				{
					"attributes":{
						"POSITION":12,
						"NORMAL":13,
						"TEXCOORD_0":14
					},
					"indices":15,
					"material":3
				}
			]
		},
		{
			"name":"DESERT.004",
			"primitives":[
				{
					"attributes":{
						"POSITION":16,
						"NORMAL":17,
						"TEXCOORD_0":18
					},
					"indices":19,
					"material":4
				}
			]
		}
	],
	"accessors":[
		{
			"bufferView":0,
			"componentType":5126,
			"count":1238,
			"max":[
				5.530399322509766,
				1,
				5.427543640136719
			],
			"min":[
				-1.4941327571868896,
				-27.40625762939453,
				-12.153295516967773
			],
			"type":"VEC3"
		},
		{
			"bufferView":1,
			"componentType":5126,
			"count":1238,
			"type":"VEC3"
		},
		{
			"bufferView":2,
			"componentType":5126,
			"count":1238,
			"type":"VEC2"
		},
		{
			"bufferView":3,
			"componentType":5123,
			"count":2286,
			"type":"SCALAR"
		},
		{
			"bufferView":4,
			"componentType":5126,
			"count":114,
			"max":[
				2.2302753925323486,
				0.7431669235229492,
				2.1836674213409424
			],
			"min":[
				-6.832150459289551,
				-27.445127487182617,
				-8.893123626708984
			],
			"type":"VEC3"
		},
		{
			"bufferView":5,
			"componentType":5126,
			"count":114,
			"type":"VEC3"
		},
		{
			"bufferView":6,
			"componentType":5126,
			"count":114,
			"type":"VEC2"
		},
		{
			"bufferView":7,
			"componentType":5123,
			"count":294,
			"type":"SCALAR"
		},
		{
			"bufferView":8,
			"componentType":5126,
			"count":64,
			"max":[
				1,
				1,
				1
			],
			"min":[
				-1,
				1,
				-7.725749492645264
			],
			"type":"VEC3"
		},
		{
			"bufferView":9,
			"componentType":5126,
			"count":64,
			"type":"VEC3"
		},
		{
			"bufferView":10,
			"componentType":5126,
			"count":64,
			"type":"VEC2"
		},
		{
			"bufferView":11,
			"componentType":5123,
			"count":180,
			"type":"SCALAR"
		},
		{
			"bufferView":12,
			"componentType":5126,
			"count":141,
			"max":[
				1465.9580078125,
				125.23551177978516,
				500
			],
			"min":[
				-874.17724609375,
				0,
				-500
			],
			"type":"VEC3"
		},
		{
			"bufferView":13,
			"componentType":5126,
			"count":141,
			"type":"VEC3"
		},
		{
			"bufferView":14,
			"componentType":5126,
			"count":141,
			"type":"VEC2"
		},
		{
			"bufferView":15,
			"componentType":5123,
			"count":270,
			"type":"SCALAR"
		},
		{
			"bufferView":16,
			"componentType":5126,
			"count":1392,
			"max":[
				1465.9580078125,
				125.48413848876953,
				500.0218811035156
			],
			"min":[
				-874.17724609375,
				-0.25,
				-500.0191345214844
			],
			"type":"VEC3"
		},
		{
			"bufferView":17,
			"componentType":5126,
			"count":1392,
			"type":"VEC3"
		},
		{
			"bufferView":18,
			"componentType":5126,
			"count":1392,
			"type":"VEC2"
		},
		{
			"bufferView":19,
			"componentType":5123,
			"count":2160,
			"type":"SCALAR"
		}
	],
	"bufferViews":[
		{
			"buffer":0,
			"byteLength":14856,
			"byteOffset":0,
			"target":34962
		},
		{
			"buffer":0,
			"byteLength":14856,
			"byteOffset":14856,
			"target":34962
		},
		{
			"buffer":0,
			"byteLength":9904,
			"byteOffset":29712,
			"target":34962
		},
		{
			"buffer":0,
			"byteLength":4572,
			"byteOffset":39616,
			"target":34963
		},
		{
			"buffer":0,
			"byteLength":1368,
			"byteOffset":44188,
			"target":34962
		},
		{
			"buffer":0,
			"byteLength":1368,
			"byteOffset":45556,
			"target":34962
		},
		{
			"buffer":0,
			"byteLength":912,
			"byteOffset":46924,
			"target":34962
		},
		{
			"buffer":0,
			"byteLength":588,
			"byteOffset":47836,
			"target":34963
		},
		{
			"buffer":0,
			"byteLength":768,
			"byteOffset":48424,
			"target":34962
		},
		{
			"buffer":0,
			"byteLength":768,
			"byteOffset":49192,
			"target":34962
		},
		{
			"buffer":0,
			"byteLength":512,
			"byteOffset":49960,
			"target":34962
		},
		{
			"buffer":0,
			"byteLength":360,
			"byteOffset":50472,
			"target":34963
		},
		{
			"buffer":0,
			"byteLength":1692,
			"byteOffset":50832,
			"target":34962
		},
		{
			"buffer":0,
			"byteLength":1692,
			"byteOffset":52524,
			"target":34962
		},
		{
			"buffer":0,
			"byteLength":1128,
			"byteOffset":54216,
			"target":34962
		},
		{
			"buffer":0,
			"byteLength":540,
			"byteOffset":55344,
			"target":34963
		},
		{
			"buffer":0,
			"byteLength":16704,
			"byteOffset":55884,
			"target":34962
		},
		{
			"buffer":0,
			"byteLength":16704,
			"byteOffset":72588,
			"target":34962
		},
		{
			"buffer":0,
			"byteLength":11136,
			"byteOffset":89292,
			"target":34962
		},
		{
			"buffer":0,
			"byteLength":4320,
			"byteOffset":100428,
			"target":34963
		}
	],
	"buffers":[
		{
			"byteLength":104748,
			"uri":"desert-car.bin"
		}
	]
}
