{
	"asset":{
		"generator":"Khronos glTF Blender I/O v4.4.56",
		"version":"2.0"
	},
	"extensionsUsed":[
		"KHR_materials_emissive_strength",
		"KHR_materials_specular",
		"KHR_materials_ior"
	],
	"scene":0,
	"scenes":[
		{
			"name":"CAR",
			"nodes":[
				0
			]
		},
		{
			"name":"DESERT",
			"nodes":[
				1,
				2
			]
		}
	],
	"nodes":[
		{
			"mesh":0,
			"name":"CAR"
		},
		{
			"mesh":1,
			"name":"DESERT"
		},
		{
			"mesh":2,
			"name":"DESERT-WIREFRAME"
		}
	],
	"materials":[
		{
			"doubleSided":true,
			"name":"wheel",
			"pbrMetallicRoughness":{
				"baseColorFactor":[
					0.014023175463080406,
					0.014023175463080406,
					0.014023175463080406,
					1
				],
				"metallicFactor":0.6978417038917542,
				"roughnessFactor":0.6618704795837402
			}
		},
		{
			"emissiveFactor":[
				0.03423910215497017,
				0.009250105358660221,
				0.006851043552160263
			],
			"extensions":{
				"KHR_materials_specular":{
					"specularColorFactor":[
						0.5342391133308411,
						0.5092501044273376,
						0.5068510174751282
					]
				},
				"KHR_materials_ior":{
					"ior":1.4500000476837158
				}
			},
			"name":"CAR",
			"pbrMetallicRoughness":{
				"baseColorFactor":[
					0.03686627745628357,
					0,
					0.06854242831468582,
					1
				],
				"metallicFactor":0.8201438784599304,
				"roughnessFactor":0.2517985701560974
			}
		},
		{
			"doubleSided":true,
			"emissiveFactor":[
				0.814846396446228,
				1,
				0.5775806307792664
			],
			"extensions":{
				"KHR_materials_emissive_strength":{
					"emissiveStrength":1000
				},
				"KHR_materials_specular":{
					"specularColorFactor":[
						0.907423198223114,
						1.0,
						0.7887903451919556
					]
				},
				"KHR_materials_ior":{
					"ior":1.4500000476837158
				}
			},
			"name":"HEADLIGHT",
			"pbrMetallicRoughness":{
				"baseColorFactor":[
					0.9822445511817932,
					1,
					0.4232679307460785,
					1
				],
				"metallicFactor":0,
				"roughnessFactor":0.5
			}
		},
		{
			"extensions":{
				"KHR_materials_specular":{
					"specularColorFactor":[
						0.6333363652229309,
						0.5689927339553833,
						0.5096746683120728
					]
				},
				"KHR_materials_ior":{
					"ior":1.4500000476837158
				}
			},
			"name":"DESERT",
			"pbrMetallicRoughness":{
				"baseColorFactor":[
					0.2666553854942322,
					0.07221542298793793,
					0.008499677293002605,
					1
				],
				"metallicFactor":0.6618704795837402,
				"roughnessFactor":0.7769784331321716
			}
		},
		{
			"extensions":{
				"KHR_materials_specular":{
					"specularColorFactor":[
						0.6333363652229309,
						0.5689927339553833,
						0.5096746683120728
					]
				},
				"KHR_materials_ior":{
					"ior":1.4500000476837158
				}
			},
			"name":"DESERT-WIREFRAME",
			"pbrMetallicRoughness":{
				"baseColorFactor":[
					0.34494131803512573,
					0.5783215761184692,
					0.05859929323196411,
					1
				],
				"metallicFactor":0
			}
		}
	],
	"meshes":[
		{
			"name":"CAR",
			"primitives":[
				{
					"attributes":{
						"POSITION":0,
						"NORMAL":1,
						"TEXCOORD_0":2
					},
					"indices":3,
					"material":0
				},
				{
					"attributes":{
						"POSITION":4,
						"NORMAL":5,
						"TEXCOORD_0":6
					},
					"indices":7,
					"material":1
				},
				{
					"attributes":{
						"POSITION":8,
						"NORMAL":9,
						"TEXCOORD_0":10
					},
					"indices":11,
					"material":2
				}
			]
		},
		{
			"name":"DESERT",
			"primitives":[
				{
					"attributes":{
						"POSITION":12,
						"NORMAL":13,
						"TEXCOORD_0":14
					},
					"indices":15,
					"material":3
				}
			]
		},
		{
			"name":"DESERT-WIREFRAME",
			"primitives":[
				{
					"attributes":{
						"POSITION":16,
						"NORMAL":17,
						"TEXCOORD_0":18
					},
					"indices":15,
					"material":4
				}
			]
		}
	],
	"accessors":[
		{
			"bufferView":0,
			"componentType":5126,
			"count":1622,
			"max":[
				3.8114471435546875,
				0.027606427669525146,
				2.3041326999664307
			],
			"min":[
				-3.6407642364501953,
				-1.815237283706665,
				-2.3080952167510986
			],
			"type":"VEC3"
		},
		{
			"bufferView":1,
			"componentType":5126,
			"count":1622,
			"type":"VEC3"
		},
		{
			"bufferView":2,
			"componentType":5126,
			"count":1622,
			"type":"VEC2"
		},
		{
			"bufferView":3,
			"componentType":5123,
			"count":3030,
			"type":"SCALAR"
		},
		{
			"bufferView":4,
			"componentType":5126,
			"count":118,
			"max":[
				3.7440686225891113,
				1.4280033111572266,
				1.4531210660934448
			],
			"min":[
				-3.650961399078369,
				-0.9494698643684387,
				-1.4528086185455322
			],
			"type":"VEC3"
		},
		{
			"bufferView":5,
			"componentType":5126,
			"count":118,
			"type":"VEC3"
		},
		{
			"bufferView":6,
			"componentType":5126,
			"count":118,
			"type":"VEC2"
		},
		{
			"bufferView":7,
			"componentType":5123,
			"count":318,
			"type":"SCALAR"
		},
		{
			"bufferView":8,
			"componentType":5126,
			"count":64,
			"max":[
				3.8114471435546875,
				-0.10202592611312866,
				1.1425930261611938
			],
			"min":[
				3.8114471435546875,
				-0.6267139315605164,
				-1.146554946899414
			],
			"type":"VEC3"
		},
		{
			"bufferView":9,
			"componentType":5126,
			"count":64,
			"type":"VEC3"
		},
		{
			"bufferView":10,
			"componentType":5126,
			"count":64,
			"type":"VEC2"
		},
		{
			"bufferView":11,
			"componentType":5123,
			"count":180,
			"type":"SCALAR"
		},
		{
			"bufferView":12,
			"componentType":5126,
			"count":1112,
			"max":[
				3694.64599609375,
				125.23551177978516,
				2521.162109375
			],
			"min":[
				-3409.54345703125,
				0,
				-2479.828369140625
			],
			"type":"VEC3"
		},
		{
			"bufferView":13,
			"componentType":5126,
			"count":1112,
			"type":"VEC3"
		},
		{
			"bufferView":14,
			"componentType":5126,
			"count":1112,
			"type":"VEC2"
		},
		{
			"bufferView":15,
			"componentType":5123,
			"count":5550,
			"type":"SCALAR"
		},
		{
			"bufferView":16,
			"componentType":5126,
			"count":1112,
			"max":[
				3694.64599609375,
				125.23551177978516,
				2521.162109375
			],
			"min":[
				-3409.54345703125,
				0,
				-2479.828369140625
			],
			"type":"VEC3"
		},
		{
			"bufferView":17,
			"componentType":5126,
			"count":1112,
			"type":"VEC3"
		},
		{
			"bufferView":18,
			"componentType":5126,
			"count":1112,
			"type":"VEC2"
		}
	],
	"bufferViews":[
		{
			"buffer":0,
			"byteLength":19464,
			"byteOffset":0,
			"target":34962
		},
		{
			"buffer":0,
			"byteLength":19464,
			"byteOffset":19464,
			"target":34962
		},
		{
			"buffer":0,
			"byteLength":12976,
			"byteOffset":38928,
			"target":34962
		},
		{
			"buffer":0,
			"byteLength":6060,
			"byteOffset":51904,
			"target":34963
		},
		{
			"buffer":0,
			"byteLength":1416,
			"byteOffset":57964,
			"target":34962
		},
		{
			"buffer":0,
			"byteLength":1416,
			"byteOffset":59380,
			"target":34962
		},
		{
			"buffer":0,
			"byteLength":944,
			"byteOffset":60796,
			"target":34962
		},
		{
			"buffer":0,
			"byteLength":636,
			"byteOffset":61740,
			"target":34963
		},
		{
			"buffer":0,
			"byteLength":768,
			"byteOffset":62376,
			"target":34962
		},
		{
			"buffer":0,
			"byteLength":768,
			"byteOffset":63144,
			"target":34962
		},
		{
			"buffer":0,
			"byteLength":512,
			"byteOffset":63912,
			"target":34962
		},
		{
			"buffer":0,
			"byteLength":360,
			"byteOffset":64424,
			"target":34963
		},
		{
			"buffer":0,
			"byteLength":13344,
			"byteOffset":64784,
			"target":34962
		},
		{
			"buffer":0,
			"byteLength":13344,
			"byteOffset":78128,
			"target":34962
		},
		{
			"buffer":0,
			"byteLength":8896,
			"byteOffset":91472,
			"target":34962
		},
		{
			"buffer":0,
			"byteLength":11100,
			"byteOffset":100368,
			"target":34963
		},
		{
			"buffer":0,
			"byteLength":13344,
			"byteOffset":111468,
			"target":34962
		},
		{
			"buffer":0,
			"byteLength":13344,
			"byteOffset":124812,
			"target":34962
		},
		{
			"buffer":0,
			"byteLength":8896,
			"byteOffset":138156,
			"target":34962
		}
	],
	"buffers":[
		{
			"byteLength":147052,
			"uri":"desertcar.bin"
		}
	]
}
