{
    "asset" : {
        "generator" : "Khronos glTF Blender I/O v3.2.0",
        "version" : "2.0"
    },
    "extensionsUsed" : [
        "KHR_lights_punctual"
    ],
    "extensionsRequired" : [
        "KHR_lights_punctual"
    ],
    "extensions" : {
        "KHR_lights_punctual" : {
            "lights" : [
                {
                    "color" : [
                        0.814846396446228,
                        1,
                        0.5775806307792664
                    ],
                    "intensity" : 1000,
                    "type" : "point",
                    "name" : "Point.003"
                },
                {
                    "color" : [
                        0.814846396446228,
                        1,
                        0.5775806307792664
                    ],
                    "intensity" : 1000,
                    "type" : "point",
                    "name" : "Point.004"
                }
            ]
        }
    },
    "scene" : 1,
    "scenes" : [
        {
            "name" : "CAR",
            "nodes" : [
                4
            ]
        },
        {
            "name" : "DESERT",
            "nodes" : [
                5,
                6
            ]
        }
    ],
    "nodes" : [
        {
            "extensions" : {
                "KHR_lights_punctual" : {
                    "light" : 0
                }
            },
            "name" : "Point.003_Orientation",
            "rotation" : [
                -0.7071067690849304,
                0,
                0,
                0.7071067690849304
            ]
        },
        {
            "children" : [
                0
            ],
            "name" : "Point.003",
            "rotation" : [
                0,
                0,
                0.7071067094802856,
                0.7071068286895752
            ],
            "scale" : [
                3.8117892742156982,
                3.8117892742156982,
                1.1127513647079468
            ],
            "translation" : [
                -0.13200105726718903,
                2.5215606689453125,
                -6.750317573547363
            ]
        },
        {
            "extensions" : {
                "KHR_lights_punctual" : {
                    "light" : 1
                }
            },
            "name" : "Point.004_Orientation",
            "rotation" : [
                -0.7071067690849304,
                0,
                0,
                0.7071067690849304
            ]
        },
        {
            "children" : [
                2
            ],
            "name" : "Point.004",
            "rotation" : [
                0,
                0,
                0.7071067094802856,
                0.7071068286895752
            ],
            "scale" : [
                3.8117892742156982,
                3.8117892742156982,
                1.1127513647079468
            ],
            "translation" : [
                -0.13200105726718903,
                2.5215606689453125,
                0.1188504695892334
            ]
        },
        {
            "children" : [
                1,
                3
            ],
            "mesh" : 0,
            "name" : "CAR",
            "rotation" : [
                0,
                0,
                -0.7071067690849304,
                0.7071068286895752
            ],
            "scale" : [
                0.26234400272369385,
                0.26234400272369385,
                0.26234400272369385
            ],
            "translation" : [
                3.554126262664795,
                -0.10411389172077179,
                0.8822299838066101
            ]
        },
        {
            "mesh" : 1,
            "name" : "DESERT"
        },
        {
            "mesh" : 2,
            "name" : "DESERT.002",
            "translation" : [
                0,
                0.20000000298023224,
                0
            ]
        }
    ],
    "materials" : [
        {
            "doubleSided" : true,
            "name" : "wheel",
            "pbrMetallicRoughness" : {
                "baseColorFactor" : [
                    0.014023175463080406,
                    0.014023175463080406,
                    0.014023175463080406,
                    1
                ],
                "metallicFactor" : 0
            }
        },
        {
            "emissiveFactor" : [
                0.03423910215497017,
                0.009250105358660221,
                0.006851043552160263
            ],
            "name" : "CAR",
            "pbrMetallicRoughness" : {
                "baseColorFactor" : [
                    0.06847820430994034,
                    0.018500210717320442,
                    0.013702087104320526,
                    1
                ],
                "metallicFactor" : 0
            }
        },
        {
            "doubleSided" : true,
            "emissiveFactor" : [
                1,
                1,
                1
            ],
            "name" : "HEADLIGHT",
            "pbrMetallicRoughness" : {
                "baseColorFactor" : [
                    0.814846396446228,
                    1,
                    0.5775806307792664,
                    1
                ],
                "metallicFactor" : 0,
                "roughnessFactor" : 0.5
            }
        },
        {
            "name" : "DESERT",
            "pbrMetallicRoughness" : {
                "baseColorFactor" : [
                    0.2666727602481842,
                    0.1379854679107666,
                    0.019349364563822746,
                    1
                ],
                "metallicFactor" : 0
            }
        },
        {
            "doubleSided" : true,
            "emissiveFactor" : [
                1,
                1,
                0
            ],
            "name" : "WIREFRAME",
            "pbrMetallicRoughness" : {
                "baseColorFactor" : [
                    0.8000000715255737,
                    0.10635536909103394,
                    0,
                    1
                ],
                "metallicFactor" : 0,
                "roughnessFactor" : 0.20000000298023224
            }
        }
    ],
    "meshes" : [
        {
            "name" : "CAR",
            "primitives" : [
                {
                    "attributes" : {
                        "POSITION" : 0,
                        "NORMAL" : 1,
                        "TEXCOORD_0" : 2
                    },
                    "indices" : 3,
                    "material" : 0
                },
                {
                    "attributes" : {
                        "POSITION" : 4,
                        "NORMAL" : 5,
                        "TEXCOORD_0" : 6
                    },
                    "indices" : 7,
                    "material" : 1
                },
                {
                    "attributes" : {
                        "POSITION" : 8,
                        "NORMAL" : 9,
                        "TEXCOORD_0" : 10
                    },
                    "indices" : 11,
                    "material" : 2
                }
            ]
        },
        {
            "name" : "DESERT",
            "primitives" : [
                {
                    "attributes" : {
                        "POSITION" : 12,
                        "NORMAL" : 13,
                        "TEXCOORD_0" : 14
                    },
                    "indices" : 15,
                    "material" : 3
                }
            ]
        },
        {
            "name" : "DESERT.004",
            "primitives" : [
                {
                    "attributes" : {
                        "POSITION" : 16,
                        "NORMAL" : 17,
                        "TEXCOORD_0" : 18
                    },
                    "indices" : 19,
                    "material" : 4
                }
            ]
        }
    ],
    "accessors" : [
        {
            "bufferView" : 0,
            "componentType" : 5126,
            "count" : 1240,
            "max" : [
                5.530399322509766,
                1,
                5.427543640136719
            ],
            "min" : [
                -1.4941327571868896,
                -27.40625762939453,
                -12.153295516967773
            ],
            "type" : "VEC3"
        },
        {
            "bufferView" : 1,
            "componentType" : 5126,
            "count" : 1240,
            "type" : "VEC3"
        },
        {
            "bufferView" : 2,
            "componentType" : 5126,
            "count" : 1240,
            "type" : "VEC2"
        },
        {
            "bufferView" : 3,
            "componentType" : 5123,
            "count" : 2286,
            "type" : "SCALAR"
        },
        {
            "bufferView" : 4,
            "componentType" : 5126,
            "count" : 126,
            "max" : [
                2.2302753925323486,
                0.7431669235229492,
                2.1836674213409424
            ],
            "min" : [
                -6.832150459289551,
                -27.445127487182617,
                -8.893123626708984
            ],
            "type" : "VEC3"
        },
        {
            "bufferView" : 5,
            "componentType" : 5126,
            "count" : 126,
            "type" : "VEC3"
        },
        {
            "bufferView" : 6,
            "componentType" : 5126,
            "count" : 126,
            "type" : "VEC2"
        },
        {
            "bufferView" : 7,
            "componentType" : 5123,
            "count" : 294,
            "type" : "SCALAR"
        },
        {
            "bufferView" : 8,
            "componentType" : 5126,
            "count" : 64,
            "max" : [
                1,
                1,
                1
            ],
            "min" : [
                -1,
                1,
                -7.725749492645264
            ],
            "type" : "VEC3"
        },
        {
            "bufferView" : 9,
            "componentType" : 5126,
            "count" : 64,
            "type" : "VEC3"
        },
        {
            "bufferView" : 10,
            "componentType" : 5126,
            "count" : 64,
            "type" : "VEC2"
        },
        {
            "bufferView" : 11,
            "componentType" : 5123,
            "count" : 180,
            "type" : "SCALAR"
        },
        {
            "bufferView" : 12,
            "componentType" : 5126,
            "count" : 147,
            "max" : [
                1465.9580078125,
                125.23551177978516,
                500
            ],
            "min" : [
                -874.17724609375,
                0,
                -500
            ],
            "type" : "VEC3"
        },
        {
            "bufferView" : 13,
            "componentType" : 5126,
            "count" : 147,
            "type" : "VEC3"
        },
        {
            "bufferView" : 14,
            "componentType" : 5126,
            "count" : 147,
            "type" : "VEC2"
        },
        {
            "bufferView" : 15,
            "componentType" : 5123,
            "count" : 270,
            "type" : "SCALAR"
        },
        {
            "bufferView" : 16,
            "componentType" : 5126,
            "count" : 1414,
            "max" : [
                1465.9580078125,
                125.48413848876953,
                500.0218811035156
            ],
            "min" : [
                -874.17724609375,
                -0.25,
                -500.0191345214844
            ],
            "type" : "VEC3"
        },
        {
            "bufferView" : 17,
            "componentType" : 5126,
            "count" : 1414,
            "type" : "VEC3"
        },
        {
            "bufferView" : 18,
            "componentType" : 5126,
            "count" : 1414,
            "type" : "VEC2"
        },
        {
            "bufferView" : 19,
            "componentType" : 5123,
            "count" : 2160,
            "type" : "SCALAR"
        }
    ],
    "bufferViews" : [
        {
            "buffer" : 0,
            "byteLength" : 14880,
            "byteOffset" : 0
        },
        {
            "buffer" : 0,
            "byteLength" : 14880,
            "byteOffset" : 14880
        },
        {
            "buffer" : 0,
            "byteLength" : 9920,
            "byteOffset" : 29760
        },
        {
            "buffer" : 0,
            "byteLength" : 4572,
            "byteOffset" : 39680
        },
        {
            "buffer" : 0,
            "byteLength" : 1512,
            "byteOffset" : 44252
        },
        {
            "buffer" : 0,
            "byteLength" : 1512,
            "byteOffset" : 45764
        },
        {
            "buffer" : 0,
            "byteLength" : 1008,
            "byteOffset" : 47276
        },
        {
            "buffer" : 0,
            "byteLength" : 588,
            "byteOffset" : 48284
        },
        {
            "buffer" : 0,
            "byteLength" : 768,
            "byteOffset" : 48872
        },
        {
            "buffer" : 0,
            "byteLength" : 768,
            "byteOffset" : 49640
        },
        {
            "buffer" : 0,
            "byteLength" : 512,
            "byteOffset" : 50408
        },
        {
            "buffer" : 0,
            "byteLength" : 360,
            "byteOffset" : 50920
        },
        {
            "buffer" : 0,
            "byteLength" : 1764,
            "byteOffset" : 51280
        },
        {
            "buffer" : 0,
            "byteLength" : 1764,
            "byteOffset" : 53044
        },
        {
            "buffer" : 0,
            "byteLength" : 1176,
            "byteOffset" : 54808
        },
        {
            "buffer" : 0,
            "byteLength" : 540,
            "byteOffset" : 55984
        },
        {
            "buffer" : 0,
            "byteLength" : 16968,
            "byteOffset" : 56524
        },
        {
            "buffer" : 0,
            "byteLength" : 16968,
            "byteOffset" : 73492
        },
        {
            "buffer" : 0,
            "byteLength" : 11312,
            "byteOffset" : 90460
        },
        {
            "buffer" : 0,
            "byteLength" : 4320,
            "byteOffset" : 101772
        }
    ],
    "buffers" : [
        {
            "byteLength" : 106092,
            "uri" : "data:application/octet-stream;base64,"
        }
    ]
}
