{
    "asset" : {
        "generator" : "Khronos glTF Blender I/O v3.3.32",
        "version" : "2.0"
    },
    "extensionsUsed" : [
        "KHR_lights_punctual",
        "KHR_materials_specular",
        "KHR_materials_ior",
        "KHR_materials_emissive_strength"
    ],
    "extensionsRequired" : [
        "KHR_lights_punctual"
    ],
    "extensions" : {
        "KHR_lights_punctual" : {
            "lights" : [
                {
                    "color" : [
                        0.814846396446228,
                        1,
                        0.5775806307792664
                    ],
                    "intensity" : 1000,
                    "type" : "point",
                    "name" : "Point.003"
                },
                {
                    "color" : [
                        0.814846396446228,
                        1,
                        0.5775806307792664
                    ],
                    "intensity" : 1000,
                    "type" : "point",
                    "name" : "Point.004"
                },
                {
                    "color" : [
                        1,
                        1,
                        1
                    ],
                    "intensity" : 10000,
                    "type" : "point",
                    "name" : "Point"
                },
                {
                    "color" : [
                        1,
                        1,
                        1
                    ],
                    "intensity" : 10000,
                    "type" : "point",
                    "name" : "Point.001"
                },
                {
                    "color" : [
                        1,
                        1,
                        1
                    ],
                    "intensity" : 10000,
                    "type" : "point",
                    "name" : "Point.002"
                },
                {
                    "color" : [
                        1,
                        1,
                        1
                    ],
                    "intensity" : 10000,
                    "type" : "point",
                    "name" : "Point.005"
                },
                {
                    "color" : [
                        1,
                        1,
                        1
                    ],
                    "intensity" : 10000,
                    "type" : "point",
                    "name" : "Point.006"
                },
                {
                    "color" : [
                        1,
                        1,
                        1
                    ],
                    "intensity" : 10000,
                    "type" : "point",
                    "name" : "Point.007"
                },
                {
                    "color" : [
                        1,
                        1,
                        1
                    ],
                    "intensity" : 10000,
                    "type" : "point",
                    "name" : "Point.008"
                },
                {
                    "color" : [
                        1,
                        1,
                        1
                    ],
                    "intensity" : 10000,
                    "type" : "point",
                    "name" : "Point.009"
                }
            ]
        }
    },
    "scene" : 1,
    "scenes" : [
        {
            "name" : "CAR",
            "nodes" : [
                2
            ]
        },
        {
            "name" : "DESERT",
            "nodes" : [
                3,
                4,
                5,
                6,
                7,
                8,
                9,
                10,
                11
            ]
        }
    ],
    "nodes" : [
        {
            "extensions" : {
                "KHR_lights_punctual" : {
                    "light" : 0
                }
            },
            "name" : "Point.003",
            "rotation" : [
                -0.5000000596046448,
                -0.5,
                0.5000000596046448,
                0.5
            ],
            "scale" : [
                3.8117892742156982,
                1.1127512454986572,
                3.811789035797119
            ],
            "translation" : [
                -0.13200105726718903,
                2.5215606689453125,
                -6.750317573547363
            ]
        },
        {
            "extensions" : {
                "KHR_lights_punctual" : {
                    "light" : 1
                }
            },
            "name" : "Point.004",
            "rotation" : [
                -0.5000000596046448,
                -0.5,
                0.5000000596046448,
                0.5
            ],
            "scale" : [
                3.8117892742156982,
                1.1127512454986572,
                3.811789035797119
            ],
            "translation" : [
                -0.13200105726718903,
                2.5215606689453125,
                0.1188502311706543
            ]
        },
        {
            "children" : [
                0,
                1
            ],
            "mesh" : 0,
            "name" : "CAR",
            "rotation" : [
                0,
                0,
                -0.7071067094802856,
                0.7071068286895752
            ],
            "scale" : [
                0.26234400272369385,
                0.26234400272369385,
                0.26234400272369385
            ],
            "translation" : [
                3.554126262664795,
                -0.10411389172077179,
                0.8822299838066101
            ]
        },
        {
            "mesh" : 1,
            "name" : "DESERT"
        },
        {
            "extensions" : {
                "KHR_lights_punctual" : {
                    "light" : 2
                }
            },
            "name" : "Point",
            "rotation" : [
                -0.7071068286895752,
                0,
                0,
                0.7071068286895752
            ],
            "translation" : [
                -583.90380859375,
                100,
                -609.2909545898438
            ]
        },
        {
            "extensions" : {
                "KHR_lights_punctual" : {
                    "light" : 3
                }
            },
            "name" : "Point.001",
            "rotation" : [
                -0.7071068286895752,
                0,
                0,
                0.7071068286895752
            ],
            "translation" : [
                -50.77423095703125,
                100,
                -653.7184448242188
            ]
        },
        {
            "extensions" : {
                "KHR_lights_punctual" : {
                    "light" : 4
                }
            },
            "name" : "Point.002",
            "rotation" : [
                -0.7071068286895752,
                0,
                0,
                0.7071068286895752
            ],
            "translation" : [
                685.4523315429688,
                100,
                -437.92791748046875
            ]
        },
        {
            "extensions" : {
                "KHR_lights_punctual" : {
                    "light" : 5
                }
            },
            "name" : "Point.005",
            "rotation" : [
                -0.7071068286895752,
                0,
                0,
                0.7071068286895752
            ],
            "translation" : [
                310.9923095703125,
                100,
                -6.103515625e-05
            ]
        },
        {
            "extensions" : {
                "KHR_lights_punctual" : {
                    "light" : 6
                }
            },
            "name" : "Point.006",
            "rotation" : [
                -0.7071068286895752,
                0,
                0,
                0.7071068286895752
            ],
            "translation" : [
                -476.0084228515625,
                100,
                -158.66958618164062
            ]
        },
        {
            "extensions" : {
                "KHR_lights_punctual" : {
                    "light" : 7
                }
            },
            "name" : "Point.007",
            "rotation" : [
                -0.7071068286895752,
                0,
                0,
                0.7071068286895752
            ],
            "translation" : [
                -609.2908325195312,
                100,
                291.95184326171875
            ]
        },
        {
            "extensions" : {
                "KHR_lights_punctual" : {
                    "light" : 8
                }
            },
            "name" : "Point.008",
            "rotation" : [
                -0.7071068286895752,
                0,
                0,
                0.7071068286895752
            ],
            "translation" : [
                25.38720703125,
                100,
                647.37158203125
            ]
        },
        {
            "extensions" : {
                "KHR_lights_punctual" : {
                    "light" : 9
                }
            },
            "name" : "Point.009",
            "rotation" : [
                -0.7071068286895752,
                0,
                0,
                0.7071068286895752
            ],
            "translation" : [
                710.8394775390625,
                100,
                748.9200439453125
            ]
        }
    ],
    "materials" : [
        {
            "doubleSided" : true,
            "name" : "wheel",
            "pbrMetallicRoughness" : {
                "baseColorFactor" : [
                    0.014023175463080406,
                    0.014023175463080406,
                    0.014023175463080406,
                    1
                ],
                "metallicFactor" : 0
            }
        },
        {
            "emissiveFactor" : [
                0.03423910215497017,
                0.009250105358660221,
                0.006851043552160263
            ],
            "extensions" : {
                "KHR_materials_specular" : {
                    "specularColorFactor" : [
                        1.8225246318696917,
                        0.9250536616800781,
                        0.838892206517448
                    ]
                },
                "KHR_materials_ior" : {
                    "ior" : 1.4500000476837158
                }
            },
            "name" : "CAR",
            "pbrMetallicRoughness" : {
                "baseColorFactor" : [
                    0.06847820430994034,
                    0.018500210717320442,
                    0.013702087104320526,
                    1
                ],
                "metallicFactor" : 0
            }
        },
        {
            "doubleSided" : true,
            "emissiveFactor" : [
                0.814846396446228,
                1,
                0.5775806307792664
            ],
            "extensions" : {
                "KHR_materials_emissive_strength" : {
                    "emissiveStrength" : 1000
                },
                "KHR_materials_specular" : {
                    "specularColorFactor" : [
                        1.1282712769778978,
                        1.2499348705630364,
                        0.9723650178950789
                    ]
                },
                "KHR_materials_ior" : {
                    "ior" : 1.4500000476837158
                }
            },
            "name" : "HEADLIGHT",
            "pbrMetallicRoughness" : {
                "baseColorFactor" : [
                    0.814846396446228,
                    1,
                    0.5775806307792664,
                    1
                ],
                "metallicFactor" : 0,
                "roughnessFactor" : 0.5
            }
        },
        {
            "extensions" : {
                "KHR_materials_specular" : {
                    "specularColorFactor" : [
                        1.7106584448163167,
                        1.0047749530312646,
                        0.6961630195704509
                    ]
                },
                "KHR_materials_ior" : {
                    "ior" : 1.4500000476837158
                }
            },
            "name" : "DESERT",
            "pbrMetallicRoughness" : {
                "baseColorFactor" : [
                    0.26667270064353943,
                    0.09827347844839096,
                    0.024649417027831078,
                    1
                ],
                "metallicFactor" : 0
            }
        }
    ],
    "meshes" : [
        {
            "name" : "CAR",
            "primitives" : [
                {
                    "attributes" : {
                        "POSITION" : 0,
                        "NORMAL" : 1,
                        "TEXCOORD_0" : 2
                    },
                    "indices" : 3,
                    "material" : 0
                },
                {
                    "attributes" : {
                        "POSITION" : 4,
                        "NORMAL" : 5,
                        "TEXCOORD_0" : 6
                    },
                    "indices" : 7,
                    "material" : 1
                },
                {
                    "attributes" : {
                        "POSITION" : 8,
                        "NORMAL" : 9,
                        "TEXCOORD_0" : 10
                    },
                    "indices" : 11,
                    "material" : 2
                }
            ]
        },
        {
            "name" : "DESERT",
            "primitives" : [
                {
                    "attributes" : {
                        "POSITION" : 12,
                        "NORMAL" : 13,
                        "TEXCOORD_0" : 14
                    },
                    "indices" : 15,
                    "material" : 3
                }
            ]
        }
    ],
    "accessors" : [
        {
            "bufferView" : 0,
            "componentType" : 5126,
            "count" : 1240,
            "max" : [
                5.530399322509766,
                1,
                5.427543640136719
            ],
            "min" : [
                -1.4941327571868896,
                -27.40625762939453,
                -12.153295516967773
            ],
            "type" : "VEC3"
        },
        {
            "bufferView" : 1,
            "componentType" : 5126,
            "count" : 1240,
            "type" : "VEC3"
        },
        {
            "bufferView" : 2,
            "componentType" : 5126,
            "count" : 1240,
            "type" : "VEC2"
        },
        {
            "bufferView" : 3,
            "componentType" : 5123,
            "count" : 2286,
            "type" : "SCALAR"
        },
        {
            "bufferView" : 4,
            "componentType" : 5126,
            "count" : 126,
            "max" : [
                2.2302753925323486,
                0.7431669235229492,
                2.1836674213409424
            ],
            "min" : [
                -6.832150459289551,
                -27.445127487182617,
                -8.893123626708984
            ],
            "type" : "VEC3"
        },
        {
            "bufferView" : 5,
            "componentType" : 5126,
            "count" : 126,
            "type" : "VEC3"
        },
        {
            "bufferView" : 6,
            "componentType" : 5126,
            "count" : 126,
            "type" : "VEC2"
        },
        {
            "bufferView" : 7,
            "componentType" : 5123,
            "count" : 294,
            "type" : "SCALAR"
        },
        {
            "bufferView" : 8,
            "componentType" : 5126,
            "count" : 64,
            "max" : [
                1,
                1,
                1
            ],
            "min" : [
                -1,
                1,
                -7.725749492645264
            ],
            "type" : "VEC3"
        },
        {
            "bufferView" : 9,
            "componentType" : 5126,
            "count" : 64,
            "type" : "VEC3"
        },
        {
            "bufferView" : 10,
            "componentType" : 5126,
            "count" : 64,
            "type" : "VEC2"
        },
        {
            "bufferView" : 11,
            "componentType" : 5123,
            "count" : 180,
            "type" : "SCALAR"
        },
        {
            "bufferView" : 12,
            "componentType" : 5126,
            "count" : 4,
            "max" : [
                1000,
                0,
                1000
            ],
            "min" : [
                -1000,
                0,
                -1000
            ],
            "type" : "VEC3"
        },
        {
            "bufferView" : 13,
            "componentType" : 5126,
            "count" : 4,
            "type" : "VEC3"
        },
        {
            "bufferView" : 14,
            "componentType" : 5126,
            "count" : 4,
            "type" : "VEC2"
        },
        {
            "bufferView" : 15,
            "componentType" : 5123,
            "count" : 6,
            "type" : "SCALAR"
        }
    ],
    "bufferViews" : [
        {
            "buffer" : 0,
            "byteLength" : 14880,
            "byteOffset" : 0,
            "target" : 34962
        },
        {
            "buffer" : 0,
            "byteLength" : 14880,
            "byteOffset" : 14880,
            "target" : 34962
        },
        {
            "buffer" : 0,
            "byteLength" : 9920,
            "byteOffset" : 29760,
            "target" : 34962
        },
        {
            "buffer" : 0,
            "byteLength" : 4572,
            "byteOffset" : 39680,
            "target" : 34963
        },
        {
            "buffer" : 0,
            "byteLength" : 1512,
            "byteOffset" : 44252,
            "target" : 34962
        },
        {
            "buffer" : 0,
            "byteLength" : 1512,
            "byteOffset" : 45764,
            "target" : 34962
        },
        {
            "buffer" : 0,
            "byteLength" : 1008,
            "byteOffset" : 47276,
            "target" : 34962
        },
        {
            "buffer" : 0,
            "byteLength" : 588,
            "byteOffset" : 48284,
            "target" : 34963
        },
        {
            "buffer" : 0,
            "byteLength" : 768,
            "byteOffset" : 48872,
            "target" : 34962
        },
        {
            "buffer" : 0,
            "byteLength" : 768,
            "byteOffset" : 49640,
            "target" : 34962
        },
        {
            "buffer" : 0,
            "byteLength" : 512,
            "byteOffset" : 50408,
            "target" : 34962
        },
        {
            "buffer" : 0,
            "byteLength" : 360,
            "byteOffset" : 50920,
            "target" : 34963
        },
        {
            "buffer" : 0,
            "byteLength" : 48,
            "byteOffset" : 51280,
            "target" : 34962
        },
        {
            "buffer" : 0,
            "byteLength" : 48,
            "byteOffset" : 51328,
            "target" : 34962
        },
        {
            "buffer" : 0,
            "byteLength" : 32,
            "byteOffset" : 51376,
            "target" : 34962
        },
        {
            "buffer" : 0,
            "byteLength" : 12,
            "byteOffset" : 51408,
            "target" : 34963
        }
    ],
    "buffers" : [
        {
            "byteLength" : 51420,
            "uri" : "data:application/octet-stream;base64,"
        }
    ]
}
